<svg id="LOGO" xmlns="http://www.w3.org/2000/svg" viewBox="0 0 1250 703"><defs><style>.cls-1{fill:#669ac5;}.cls-2{fill:#0a1f8f;}.cls-3{fill:#fff;}</style></defs><title>stoneridge-technology-logo</title><polygon class="cls-1" points="341.05 382.26 357.76 382.26 357.76 424.88 364.81 424.88 364.81 382.26 381.86 382.26 381.86 376.01 341.05 376.01 341.05 382.26"/><polygon class="cls-1" points="424.06 403.4 443.95 403.4 443.95 397.15 424.06 397.15 424.06 382.26 444.63 382.26 444.63 376.01 417.02 376.01 417.02 424.88 445.32 424.88 445.32 418.63 424.06 418.63 424.06 403.4"/><path class="cls-1" d="M492.35,413.88a17.55,17.55,0,0,1-5.45-13.29,17.77,17.77,0,0,1,5.53-13.35,19.22,19.22,0,0,1,13.9-5.32A33.64,33.64,0,0,1,523,386.8v-7.5q-9.39-4-17.08-4a26,26,0,0,0-18.74,7.31,24,24,0,0,0-7.59,18A24.71,24.71,0,0,0,483,413.17a24.22,24.22,0,0,0,9,9.09,27.26,27.26,0,0,0,13.88,3.3,36.37,36.37,0,0,0,17.76-4.21v-7.72a31.62,31.62,0,0,1-17.33,5.45Q497.81,419.08,492.35,413.88Z"/><polygon class="cls-1" points="595.2 397.15 567.81 397.15 567.81 376.01 560.76 376.01 560.76 424.88 567.81 424.88 567.81 403.62 595.2 403.62 595.2 424.88 602.25 424.88 602.25 376.01 595.2 376.01 595.2 397.15"/><polygon class="cls-1" points="680.45 413.97 647.49 376.01 641.81 376.01 641.81 424.88 648.4 424.88 648.4 387.23 681.08 424.88 687.05 424.88 687.05 376.01 680.45 376.01 680.45 413.97"/><polygon class="cls-1" points="820.72 376.01 813.67 376.01 813.67 424.88 842.65 424.88 842.65 418.51 820.72 418.51 820.72 376.01"/><path class="cls-1" d="M991.33,407.15h9.44v10.14l-.67.21a32.76,32.76,0,0,1-10,1.92q-8.61,0-14.09-5.29a19,19,0,0,1,13.47-32.55,34,34,0,0,1,17.31,5.11v-7.16a63.54,63.54,0,0,0-9.37-3.3,32.42,32.42,0,0,0-7.82-.91q-11.31,0-18.83,7.31a24.44,24.44,0,0,0-7.51,18.29,23.56,23.56,0,0,0,7.26,17.53q7.26,7.11,19.39,7.11a44.31,44.31,0,0,0,17.91-3.95V400.89H991.33Z"/><polygon class="cls-1" points="1062.86 392.77 1049.69 376.01 1041.24 376.01 1059.32 399.03 1059.32 424.88 1066.48 424.88 1066.48 399.03 1084.55 376.01 1076.02 376.01 1062.86 392.77"/><path class="cls-2" d="M362.08,339.59a27.5,27.5,0,0,1-10.85-2.15,75.22,75.22,0,0,1-10.31-5.39V349a64.86,64.86,0,0,0,10.74,3.68,59.06,59.06,0,0,0,8.28,1.52c2.07.19,3.83.27,5.25.27A34.7,34.7,0,0,0,378.8,352a21,21,0,0,0,9.25-7.25,19.15,19.15,0,0,0,3.31-11.22,16.75,16.75,0,0,0-2.71-9.77,25.27,25.27,0,0,0-7.49-6.93A125.49,125.49,0,0,0,368.42,310a29.93,29.93,0,0,1-6.23-3.65,4.53,4.53,0,0,1-1.75-3.55,4.7,4.7,0,0,1,1.75-3.7c1.16-1,3-1.5,5.62-1.5a26.26,26.26,0,0,1,11.13,2.4,57.27,57.27,0,0,1,9.44,5.44V289.27a33.23,33.23,0,0,0-4.39-2.19,46.69,46.69,0,0,0-8.1-2.52,47.92,47.92,0,0,0-10.69-1.12,31.64,31.64,0,0,0-13.76,2.7,18.35,18.35,0,0,0-11.11,17.33,18.12,18.12,0,0,0,2.72,10,23.62,23.62,0,0,0,7,7.07,62,62,0,0,0,10,5.22,39,39,0,0,1,7.82,4,5.69,5.69,0,0,1,2.69,4.73,5.18,5.18,0,0,1-1.57,3.32C367.94,339,365.64,339.59,362.08,339.59Z"/><polygon class="cls-2" points="425.77 353.57 446.57 353.57 446.57 301.17 471.92 301.17 471.92 284.35 400.43 284.35 400.43 301.17 425.77 301.17 425.77 353.57"/><polygon class="cls-2" points="584.32 315.04 620.21 353.57 638.76 353.57 638.76 284.35 617.96 284.35 617.96 322.76 582.17 284.35 563.63 284.35 563.63 353.57 584.32 353.57 584.32 315.04"/><polygon class="cls-2" points="708.24 339.7 676.96 339.7 676.96 324.81 705.99 324.81 705.99 310.94 676.96 310.94 676.96 298.21 707.39 298.21 707.39 284.35 656.16 284.35 656.16 353.57 708.24 353.57 708.24 339.7"/><path class="cls-2" d="M812.44,338.57q-3.75-8.13-5.91-10.79a20.1,20.1,0,0,0-5.51-4.61,42.58,42.58,0,0,0,5-3.15,16.25,16.25,0,0,0,4.27-5.28,18.1,18.1,0,0,0,2-8.88,22,22,0,0,0-2.42-9.51,21,21,0,0,0-7.89-8.5q-5.49-3.51-14.06-3.51H752.55v69.23h20.8V326.63h2.35a16.55,16.55,0,0,1,5.85.87,11.67,11.67,0,0,1,4.66,4,51.79,51.79,0,0,1,5.39,9.84L797,353.57h22.4Zm-24.17-25.89q-2.81,1.68-10.43,1.67h-4.49V297.64h4.39q7.07,0,10.21,1.91t3.13,6.7C791.08,309.42,790.15,311.56,788.27,312.68Z"/><rect class="cls-2" x="829.07" y="284.34" width="20.8" height="69.22"/><path class="cls-1" d="M750.14,375.32q-11.35,0-18.77,7.19A24.21,24.21,0,0,0,724,400.67a23.68,23.68,0,0,0,7.37,17.8q7.36,7.09,18.43,7.09,11.6,0,19.2-7.09a23.49,23.49,0,0,0,7.62-17.94,23.85,23.85,0,0,0-7.55-18Q761.49,375.33,750.14,375.32Zm13.79,38.39a20.16,20.16,0,0,1-27.28.11,17.62,17.62,0,0,1-5.43-13.2,18,18,0,0,1,5.41-13.44,19,19,0,0,1,13.83-5.26,18.62,18.62,0,0,1,13.47,5.32,17.54,17.54,0,0,1,5.48,13.1A18,18,0,0,1,763.93,413.71Z"/><path class="cls-1" d="M901.43,375.32q-11.35,0-18.77,7.19a24.21,24.21,0,0,0-7.42,18.16,23.72,23.72,0,0,0,7.37,17.8q7.36,7.09,18.43,7.09,11.58,0,19.21-7.09a23.48,23.48,0,0,0,7.61-17.94,23.84,23.84,0,0,0-7.54-18Q912.77,375.33,901.43,375.32Zm13.79,38.39a20.16,20.16,0,0,1-27.28.11,17.62,17.62,0,0,1-5.43-13.2,17.9,17.9,0,0,1,5.42-13.44,19,19,0,0,1,13.82-5.26,18.6,18.6,0,0,1,13.47,5.32,17.54,17.54,0,0,1,5.48,13.1A18,18,0,0,1,915.22,413.71Z"/><path class="cls-2" d="M542.32,294A34.15,34.15,0,0,0,530,286.28a48,48,0,0,0-17.07-2.84q-12.81,0-21.71,5A32.21,32.21,0,0,0,478,301.48a37.5,37.5,0,0,0,0,34.87,32.44,32.44,0,0,0,13.19,13.13q8.88,5,21.69,5t21.49-4.79a32.17,32.17,0,0,0,13.28-12.93,36.38,36.38,0,0,0,4.47-17.82,37.29,37.29,0,0,0-2.5-13.6A32.31,32.31,0,0,0,542.32,294ZM528.8,328.16a15.15,15.15,0,0,1-6.13,6.31,19.54,19.54,0,0,1-9.76,2.27q-8.32,0-13.13-4.92T495,318.93q0-7.95,4.78-12.86t13.15-4.9a20.92,20.92,0,0,1,7.72,1.32,16.06,16.06,0,0,1,5.65,3.71,15.2,15.2,0,0,1,3.47,5.6,21.28,21.28,0,0,1,1.14,7.13A19.65,19.65,0,0,1,528.8,328.16Z"/><path class="cls-2" d="M936.82,308.91a33.64,33.64,0,0,0-4.26-9.14,31.82,31.82,0,0,0-6.22-6.84,30.76,30.76,0,0,0-4.64-3.27,32.49,32.49,0,0,0-6.27-2.74,48.42,48.42,0,0,0-8.3-1.9,77.7,77.7,0,0,0-11.08-.68H867.36v69.23h37.25q13.35,0,20.78-5.84a36.9,36.9,0,0,0,9.13-10.44q3.87-6.45,3.87-17.09A38.8,38.8,0,0,0,936.82,308.91Zm-25.66,26.44A25.28,25.28,0,0,1,897,339.24h-8.86v-41H897a27.44,27.44,0,0,1,9.19,1.6,15.8,15.8,0,0,1,7.71,6.32q3.23,4.72,3.22,13.17Q917.14,331.45,911.16,335.35Z"/><path class="cls-2" d="M966.4,350.63a48.68,48.68,0,0,0,19.45,3.84,82.92,82.92,0,0,0,9.95-.57,89.13,89.13,0,0,0,9.45-1.67c1.86-.47,3.28-.85,4.26-1.15s2-.63,3.07-1,2.34-.84,3.83-1.4v-33.2H988.85v13.87h9.38v8.15a37.35,37.35,0,0,1-8.48,1.05,24.79,24.79,0,0,1-11.93-2.67,17.89,17.89,0,0,1-7.38-7.1,19.66,19.66,0,0,1-2.45-9.67,22.43,22.43,0,0,1,2.13-9.2,18.94,18.94,0,0,1,7.53-8.17q5.4-3.42,14.43-3.42a39.81,39.81,0,0,1,13.07,1.84,57.78,57.78,0,0,1,9.92,4.59V288.42c-4.73-1.5-9.06-2.7-13-3.61A68.17,68.17,0,0,0,987,283.44a71.44,71.44,0,0,0-10.12.65,40.64,40.64,0,0,0-9.4,2.56,39.33,39.33,0,0,0-9.5,5.55,26.1,26.1,0,0,0-8.46,11.71,41.74,41.74,0,0,0-2.77,14.91q0,11.79,5.36,19.88A31.9,31.9,0,0,0,966.4,350.63Z"/><polygon class="cls-2" points="1084.96 339.7 1053.67 339.7 1053.67 324.81 1082.71 324.81 1082.71 310.94 1053.67 310.94 1053.67 298.21 1084.11 298.21 1084.11 284.35 1032.88 284.35 1032.88 353.57 1084.96 353.57 1084.96 339.7"/><polygon class="cls-1" points="163.5 274.8 163.5 399.45 242.23 274.8 163.5 274.8"/><polygon class="cls-1" points="316.91 324.73 316.91 274.8 251.71 274.8 316.91 324.73"/><polygon class="cls-2" points="163.5 410.68 163.5 428.2 316.91 428.2 316.91 346.75 245.32 290.05 163.5 410.68"/><polygon class="cls-2" points="308.64 351.22 250.1 336.32 178.26 402.85 247.44 308.65 308.64 351.22"/><polygon class="cls-3" points="250.1 336.32 308.64 351.22 247.44 308.65 178.26 402.85 250.1 336.32"/><rect class="cls-2" x="341.91" y="361.98" width="744.59" height="3.49"/></svg>